<mxfile host="app.diagrams.net" modified="2024-03-27T17:50:00.725Z" agent="Mozilla/5.0 (Windows NT 10.0; Win64; x64) AppleWebKit/537.36 (KHTML, like Gecko) Chrome/123.0.0.0 Safari/537.36" etag="1w-DAQSi_8Dr3hgaMAgC" version="24.2.0" type="github">
  <diagram id="C5RBs43oDa-KdzZeNtuy" name="Page-1">
    <mxGraphModel dx="1434" dy="756" grid="1" gridSize="10" guides="1" tooltips="1" connect="1" arrows="1" fold="1" page="1" pageScale="1" pageWidth="827" pageHeight="1169" math="0" shadow="0">
      <root>
        <mxCell id="WIyWlLk6GJQsqaUBKTNV-0" />
        <mxCell id="WIyWlLk6GJQsqaUBKTNV-1" parent="WIyWlLk6GJQsqaUBKTNV-0" />
        <mxCell id="WIyWlLk6GJQsqaUBKTNV-2" value="" style="rounded=0;html=1;jettySize=auto;orthogonalLoop=1;fontSize=11;endArrow=block;endFill=0;endSize=8;strokeWidth=1;shadow=0;labelBackgroundColor=none;edgeStyle=orthogonalEdgeStyle;entryX=0.417;entryY=-0.05;entryDx=0;entryDy=0;entryPerimeter=0;" parent="WIyWlLk6GJQsqaUBKTNV-1" source="WIyWlLk6GJQsqaUBKTNV-3" target="BDneu49GmS7sHKYXAItF-0" edge="1">
          <mxGeometry relative="1" as="geometry">
            <mxPoint x="190" y="420" as="targetPoint" />
            <Array as="points">
              <mxPoint x="150" y="190" />
            </Array>
          </mxGeometry>
        </mxCell>
        <mxCell id="BDneu49GmS7sHKYXAItF-9" style="edgeStyle=orthogonalEdgeStyle;rounded=0;orthogonalLoop=1;jettySize=auto;html=1;entryX=0.5;entryY=0;entryDx=0;entryDy=0;" edge="1" parent="WIyWlLk6GJQsqaUBKTNV-1" source="WIyWlLk6GJQsqaUBKTNV-3" target="BDneu49GmS7sHKYXAItF-1">
          <mxGeometry relative="1" as="geometry" />
        </mxCell>
        <mxCell id="BDneu49GmS7sHKYXAItF-18" style="edgeStyle=orthogonalEdgeStyle;rounded=0;orthogonalLoop=1;jettySize=auto;html=1;" edge="1" parent="WIyWlLk6GJQsqaUBKTNV-1" source="WIyWlLk6GJQsqaUBKTNV-3" target="BDneu49GmS7sHKYXAItF-16">
          <mxGeometry relative="1" as="geometry" />
        </mxCell>
        <mxCell id="WIyWlLk6GJQsqaUBKTNV-3" value="Home page" style="rounded=1;whiteSpace=wrap;html=1;fontSize=12;glass=0;strokeWidth=1;shadow=0;" parent="WIyWlLk6GJQsqaUBKTNV-1" vertex="1">
          <mxGeometry x="280" y="170" width="120" height="40" as="geometry" />
        </mxCell>
        <mxCell id="BDneu49GmS7sHKYXAItF-6" style="edgeStyle=orthogonalEdgeStyle;rounded=0;orthogonalLoop=1;jettySize=auto;html=1;" edge="1" parent="WIyWlLk6GJQsqaUBKTNV-1" source="BDneu49GmS7sHKYXAItF-0" target="BDneu49GmS7sHKYXAItF-4">
          <mxGeometry relative="1" as="geometry" />
        </mxCell>
        <mxCell id="BDneu49GmS7sHKYXAItF-0" value="Login page" style="rounded=1;whiteSpace=wrap;html=1;fontSize=12;glass=0;strokeWidth=1;shadow=0;" vertex="1" parent="WIyWlLk6GJQsqaUBKTNV-1">
          <mxGeometry x="100" y="350" width="120" height="40" as="geometry" />
        </mxCell>
        <mxCell id="BDneu49GmS7sHKYXAItF-8" style="edgeStyle=orthogonalEdgeStyle;rounded=0;orthogonalLoop=1;jettySize=auto;html=1;" edge="1" parent="WIyWlLk6GJQsqaUBKTNV-1" source="BDneu49GmS7sHKYXAItF-1">
          <mxGeometry relative="1" as="geometry">
            <mxPoint x="230" y="370" as="targetPoint" />
          </mxGeometry>
        </mxCell>
        <mxCell id="BDneu49GmS7sHKYXAItF-1" value="Register page" style="rounded=1;whiteSpace=wrap;html=1;fontSize=12;glass=0;strokeWidth=1;shadow=0;" vertex="1" parent="WIyWlLk6GJQsqaUBKTNV-1">
          <mxGeometry x="490" y="350" width="120" height="40" as="geometry" />
        </mxCell>
        <mxCell id="BDneu49GmS7sHKYXAItF-22" style="edgeStyle=orthogonalEdgeStyle;rounded=0;orthogonalLoop=1;jettySize=auto;html=1;entryX=0;entryY=0.5;entryDx=0;entryDy=0;" edge="1" parent="WIyWlLk6GJQsqaUBKTNV-1" source="BDneu49GmS7sHKYXAItF-4" target="BDneu49GmS7sHKYXAItF-20">
          <mxGeometry relative="1" as="geometry" />
        </mxCell>
        <mxCell id="BDneu49GmS7sHKYXAItF-23" style="edgeStyle=orthogonalEdgeStyle;rounded=0;orthogonalLoop=1;jettySize=auto;html=1;entryX=0;entryY=0.5;entryDx=0;entryDy=0;" edge="1" parent="WIyWlLk6GJQsqaUBKTNV-1" source="BDneu49GmS7sHKYXAItF-4" target="BDneu49GmS7sHKYXAItF-10">
          <mxGeometry relative="1" as="geometry" />
        </mxCell>
        <mxCell id="BDneu49GmS7sHKYXAItF-24" style="edgeStyle=orthogonalEdgeStyle;rounded=0;orthogonalLoop=1;jettySize=auto;html=1;entryX=0;entryY=0.5;entryDx=0;entryDy=0;" edge="1" parent="WIyWlLk6GJQsqaUBKTNV-1" source="BDneu49GmS7sHKYXAItF-4" target="BDneu49GmS7sHKYXAItF-11">
          <mxGeometry relative="1" as="geometry" />
        </mxCell>
        <mxCell id="BDneu49GmS7sHKYXAItF-25" style="edgeStyle=orthogonalEdgeStyle;rounded=0;orthogonalLoop=1;jettySize=auto;html=1;entryX=0;entryY=0.5;entryDx=0;entryDy=0;" edge="1" parent="WIyWlLk6GJQsqaUBKTNV-1" source="BDneu49GmS7sHKYXAItF-4" target="BDneu49GmS7sHKYXAItF-12">
          <mxGeometry relative="1" as="geometry" />
        </mxCell>
        <mxCell id="BDneu49GmS7sHKYXAItF-4" value="Profile page" style="rounded=1;whiteSpace=wrap;html=1;fontSize=12;glass=0;strokeWidth=1;shadow=0;" vertex="1" parent="WIyWlLk6GJQsqaUBKTNV-1">
          <mxGeometry x="100" y="660" width="120" height="40" as="geometry" />
        </mxCell>
        <mxCell id="BDneu49GmS7sHKYXAItF-10" value="Upload Post" style="rounded=1;whiteSpace=wrap;html=1;fontSize=12;glass=0;strokeWidth=1;shadow=0;" vertex="1" parent="WIyWlLk6GJQsqaUBKTNV-1">
          <mxGeometry x="370" y="600" width="120" height="40" as="geometry" />
        </mxCell>
        <mxCell id="BDneu49GmS7sHKYXAItF-11" value="Edit Post" style="rounded=1;whiteSpace=wrap;html=1;fontSize=12;glass=0;strokeWidth=1;shadow=0;" vertex="1" parent="WIyWlLk6GJQsqaUBKTNV-1">
          <mxGeometry x="370" y="670" width="120" height="40" as="geometry" />
        </mxCell>
        <mxCell id="BDneu49GmS7sHKYXAItF-12" value="Delete Post" style="rounded=1;whiteSpace=wrap;html=1;fontSize=12;glass=0;strokeWidth=1;shadow=0;" vertex="1" parent="WIyWlLk6GJQsqaUBKTNV-1">
          <mxGeometry x="370" y="750" width="120" height="40" as="geometry" />
        </mxCell>
        <mxCell id="BDneu49GmS7sHKYXAItF-16" value="History page" style="rounded=1;whiteSpace=wrap;html=1;fontSize=12;glass=0;strokeWidth=1;shadow=0;" vertex="1" parent="WIyWlLk6GJQsqaUBKTNV-1">
          <mxGeometry x="670" y="350" width="120" height="40" as="geometry" />
        </mxCell>
        <mxCell id="BDneu49GmS7sHKYXAItF-20" value="View Posts" style="rounded=1;whiteSpace=wrap;html=1;fontSize=12;glass=0;strokeWidth=1;shadow=0;" vertex="1" parent="WIyWlLk6GJQsqaUBKTNV-1">
          <mxGeometry x="370" y="520" width="120" height="40" as="geometry" />
        </mxCell>
      </root>
    </mxGraphModel>
  </diagram>
</mxfile>
